# xmcd
#
# Track frame offsets: 
#        150
#        27724
#        52811
#        71016
#        98924
#        120057
#        144090
#        164882
#        180168
#        215425
#        241776
#
# Disc length: 3509 seconds
#
# Revision: 0
# Processed by: cddbd v1.5.2PL0 Copyright (c) Steve Scherf et al.
# Submitted via: ExactAudioCopy v0.99pb3
#
DISCID=8c0db30b
DTITLE=W. C. Clark - Where You There
DYEAR=2011
DGENRE=Blues
TTITLE0=Having A Party
TTITLE1=Nightshift
TTITLE2=Hey Pocky Way
TTITLE3=Georgia On My Mind
TTITLE4=YouDon't Have To Go
TTITLE5=Big Boss Man
TTITLE6=Ain't No Sunshine
TTITLE7=Bright Side Of The Road
TTITLE8=Down On Bended Knee
TTITLE9=Stand By Me
TTITLE10=What'd I Say
EXTD=
EXTT0=
EXTT1=
EXTT2=
EXTT3=
EXTT4=
EXTT5=
EXTT6=
EXTT7=
EXTT8=
EXTT9=
EXTT10=
PLAYORDER=
